<?xml version="1.0" encoding="UTF-8"?>
<svg xmlns="http://www.w3.org/2000/svg" width="500" height="800" viewBox="0 0 500 800">
<rect width="500" height="800" fill="#1a1a2e"/>
<text x="10" y="25" fill="#eee" font-family="sans-serif" font-size="14">XOR: physical_col = logical_col ^ (row % 8)</text>
<text x="10" y="42" fill="#888" font-family="sans-serif" font-size="11">Same column in different rows → different physical cols → different LDS banks</text>
<text x="104.0" y="55" fill="#888" font-size="10" text-anchor="middle">c0</text>
<text x="140.0" y="55" fill="#888" font-size="10" text-anchor="middle">c1</text>
<text x="176.0" y="55" fill="#888" font-size="10" text-anchor="middle">c2</text>
<text x="212.0" y="55" fill="#888" font-size="10" text-anchor="middle">c3</text>
<text x="248.0" y="55" fill="#888" font-size="10" text-anchor="middle">c4</text>
<text x="284.0" y="55" fill="#888" font-size="10" text-anchor="middle">c5</text>
<text x="320.0" y="55" fill="#888" font-size="10" text-anchor="middle">c6</text>
<text x="356.0" y="55" fill="#888" font-size="10" text-anchor="middle">c7</text>
<text x="45" y="75.0" fill="#666" font-size="9" text-anchor="end">r0</text>
<rect x="90" y="60" width="34" height="20" rx="3" fill="#e6194b"/>
<text x="104.0" y="75.0" font-size="10" text-anchor="middle" fill="black" font-weight="bold">0</text>
<rect x="126" y="60" width="34" height="20" rx="3" fill="#3cb44b"/>
<text x="140.0" y="75.0" font-size="10" text-anchor="middle" fill="black" font-weight="bold">1</text>
<rect x="162" y="60" width="34" height="20" rx="3" fill="#ffe119"/>
<text x="176.0" y="75.0" font-size="10" text-anchor="middle" fill="black" font-weight="bold">2</text>
<rect x="198" y="60" width="34" height="20" rx="3" fill="#4363d8"/>
<text x="212.0" y="75.0" font-size="10" text-anchor="middle" fill="black" font-weight="bold">3</text>
<rect x="234" y="60" width="34" height="20" rx="3" fill="#f58231"/>
<text x="248.0" y="75.0" font-size="10" text-anchor="middle" fill="black" font-weight="bold">4</text>
<rect x="270" y="60" width="34" height="20" rx="3" fill="#911eb4"/>
<text x="284.0" y="75.0" font-size="10" text-anchor="middle" fill="black" font-weight="bold">5</text>
<rect x="306" y="60" width="34" height="20" rx="3" fill="#46f0f0"/>
<text x="320.0" y="75.0" font-size="10" text-anchor="middle" fill="black" font-weight="bold">6</text>
<rect x="342" y="60" width="34" height="20" rx="3" fill="#f032e6"/>
<text x="356.0" y="75.0" font-size="10" text-anchor="middle" fill="black" font-weight="bold">7</text>
<text x="45" y="97.0" fill="#666" font-size="9" text-anchor="end">r1</text>
<rect x="90" y="82" width="34" height="20" rx="3" fill="#3cb44b"/>
<text x="104.0" y="97.0" font-size="10" text-anchor="middle" fill="black" font-weight="bold">1</text>
<rect x="126" y="82" width="34" height="20" rx="3" fill="#e6194b"/>
<text x="140.0" y="97.0" font-size="10" text-anchor="middle" fill="black" font-weight="bold">0</text>
<rect x="162" y="82" width="34" height="20" rx="3" fill="#4363d8"/>
<text x="176.0" y="97.0" font-size="10" text-anchor="middle" fill="black" font-weight="bold">3</text>
<rect x="198" y="82" width="34" height="20" rx="3" fill="#ffe119"/>
<text x="212.0" y="97.0" font-size="10" text-anchor="middle" fill="black" font-weight="bold">2</text>
<rect x="234" y="82" width="34" height="20" rx="3" fill="#911eb4"/>
<text x="248.0" y="97.0" font-size="10" text-anchor="middle" fill="black" font-weight="bold">5</text>
<rect x="270" y="82" width="34" height="20" rx="3" fill="#f58231"/>
<text x="284.0" y="97.0" font-size="10" text-anchor="middle" fill="black" font-weight="bold">4</text>
<rect x="306" y="82" width="34" height="20" rx="3" fill="#f032e6"/>
<text x="320.0" y="97.0" font-size="10" text-anchor="middle" fill="black" font-weight="bold">7</text>
<rect x="342" y="82" width="34" height="20" rx="3" fill="#46f0f0"/>
<text x="356.0" y="97.0" font-size="10" text-anchor="middle" fill="black" font-weight="bold">6</text>
<text x="45" y="119.0" fill="#666" font-size="9" text-anchor="end">r2</text>
<rect x="90" y="104" width="34" height="20" rx="3" fill="#ffe119"/>
<text x="104.0" y="119.0" font-size="10" text-anchor="middle" fill="black" font-weight="bold">2</text>
<rect x="126" y="104" width="34" height="20" rx="3" fill="#4363d8"/>
<text x="140.0" y="119.0" font-size="10" text-anchor="middle" fill="black" font-weight="bold">3</text>
<rect x="162" y="104" width="34" height="20" rx="3" fill="#e6194b"/>
<text x="176.0" y="119.0" font-size="10" text-anchor="middle" fill="black" font-weight="bold">0</text>
<rect x="198" y="104" width="34" height="20" rx="3" fill="#3cb44b"/>
<text x="212.0" y="119.0" font-size="10" text-anchor="middle" fill="black" font-weight="bold">1</text>
<rect x="234" y="104" width="34" height="20" rx="3" fill="#46f0f0"/>
<text x="248.0" y="119.0" font-size="10" text-anchor="middle" fill="black" font-weight="bold">6</text>
<rect x="270" y="104" width="34" height="20" rx="3" fill="#f032e6"/>
<text x="284.0" y="119.0" font-size="10" text-anchor="middle" fill="black" font-weight="bold">7</text>
<rect x="306" y="104" width="34" height="20" rx="3" fill="#f58231"/>
<text x="320.0" y="119.0" font-size="10" text-anchor="middle" fill="black" font-weight="bold">4</text>
<rect x="342" y="104" width="34" height="20" rx="3" fill="#911eb4"/>
<text x="356.0" y="119.0" font-size="10" text-anchor="middle" fill="black" font-weight="bold">5</text>
<text x="45" y="141.0" fill="#666" font-size="9" text-anchor="end">r3</text>
<rect x="90" y="126" width="34" height="20" rx="3" fill="#4363d8"/>
<text x="104.0" y="141.0" font-size="10" text-anchor="middle" fill="black" font-weight="bold">3</text>
<rect x="126" y="126" width="34" height="20" rx="3" fill="#ffe119"/>
<text x="140.0" y="141.0" font-size="10" text-anchor="middle" fill="black" font-weight="bold">2</text>
<rect x="162" y="126" width="34" height="20" rx="3" fill="#3cb44b"/>
<text x="176.0" y="141.0" font-size="10" text-anchor="middle" fill="black" font-weight="bold">1</text>
<rect x="198" y="126" width="34" height="20" rx="3" fill="#e6194b"/>
<text x="212.0" y="141.0" font-size="10" text-anchor="middle" fill="black" font-weight="bold">0</text>
<rect x="234" y="126" width="34" height="20" rx="3" fill="#f032e6"/>
<text x="248.0" y="141.0" font-size="10" text-anchor="middle" fill="black" font-weight="bold">7</text>
<rect x="270" y="126" width="34" height="20" rx="3" fill="#46f0f0"/>
<text x="284.0" y="141.0" font-size="10" text-anchor="middle" fill="black" font-weight="bold">6</text>
<rect x="306" y="126" width="34" height="20" rx="3" fill="#911eb4"/>
<text x="320.0" y="141.0" font-size="10" text-anchor="middle" fill="black" font-weight="bold">5</text>
<rect x="342" y="126" width="34" height="20" rx="3" fill="#f58231"/>
<text x="356.0" y="141.0" font-size="10" text-anchor="middle" fill="black" font-weight="bold">4</text>
<text x="45" y="163.0" fill="#666" font-size="9" text-anchor="end">r4</text>
<rect x="90" y="148" width="34" height="20" rx="3" fill="#f58231"/>
<text x="104.0" y="163.0" font-size="10" text-anchor="middle" fill="black" font-weight="bold">4</text>
<rect x="126" y="148" width="34" height="20" rx="3" fill="#911eb4"/>
<text x="140.0" y="163.0" font-size="10" text-anchor="middle" fill="black" font-weight="bold">5</text>
<rect x="162" y="148" width="34" height="20" rx="3" fill="#46f0f0"/>
<text x="176.0" y="163.0" font-size="10" text-anchor="middle" fill="black" font-weight="bold">6</text>
<rect x="198" y="148" width="34" height="20" rx="3" fill="#f032e6"/>
<text x="212.0" y="163.0" font-size="10" text-anchor="middle" fill="black" font-weight="bold">7</text>
<rect x="234" y="148" width="34" height="20" rx="3" fill="#e6194b"/>
<text x="248.0" y="163.0" font-size="10" text-anchor="middle" fill="black" font-weight="bold">0</text>
<rect x="270" y="148" width="34" height="20" rx="3" fill="#3cb44b"/>
<text x="284.0" y="163.0" font-size="10" text-anchor="middle" fill="black" font-weight="bold">1</text>
<rect x="306" y="148" width="34" height="20" rx="3" fill="#ffe119"/>
<text x="320.0" y="163.0" font-size="10" text-anchor="middle" fill="black" font-weight="bold">2</text>
<rect x="342" y="148" width="34" height="20" rx="3" fill="#4363d8"/>
<text x="356.0" y="163.0" font-size="10" text-anchor="middle" fill="black" font-weight="bold">3</text>
<text x="45" y="185.0" fill="#666" font-size="9" text-anchor="end">r5</text>
<rect x="90" y="170" width="34" height="20" rx="3" fill="#911eb4"/>
<text x="104.0" y="185.0" font-size="10" text-anchor="middle" fill="black" font-weight="bold">5</text>
<rect x="126" y="170" width="34" height="20" rx="3" fill="#f58231"/>
<text x="140.0" y="185.0" font-size="10" text-anchor="middle" fill="black" font-weight="bold">4</text>
<rect x="162" y="170" width="34" height="20" rx="3" fill="#f032e6"/>
<text x="176.0" y="185.0" font-size="10" text-anchor="middle" fill="black" font-weight="bold">7</text>
<rect x="198" y="170" width="34" height="20" rx="3" fill="#46f0f0"/>
<text x="212.0" y="185.0" font-size="10" text-anchor="middle" fill="black" font-weight="bold">6</text>
<rect x="234" y="170" width="34" height="20" rx="3" fill="#3cb44b"/>
<text x="248.0" y="185.0" font-size="10" text-anchor="middle" fill="black" font-weight="bold">1</text>
<rect x="270" y="170" width="34" height="20" rx="3" fill="#e6194b"/>
<text x="284.0" y="185.0" font-size="10" text-anchor="middle" fill="black" font-weight="bold">0</text>
<rect x="306" y="170" width="34" height="20" rx="3" fill="#4363d8"/>
<text x="320.0" y="185.0" font-size="10" text-anchor="middle" fill="black" font-weight="bold">3</text>
<rect x="342" y="170" width="34" height="20" rx="3" fill="#ffe119"/>
<text x="356.0" y="185.0" font-size="10" text-anchor="middle" fill="black" font-weight="bold">2</text>
<text x="45" y="207.0" fill="#666" font-size="9" text-anchor="end">r6</text>
<rect x="90" y="192" width="34" height="20" rx="3" fill="#46f0f0"/>
<text x="104.0" y="207.0" font-size="10" text-anchor="middle" fill="black" font-weight="bold">6</text>
<rect x="126" y="192" width="34" height="20" rx="3" fill="#f032e6"/>
<text x="140.0" y="207.0" font-size="10" text-anchor="middle" fill="black" font-weight="bold">7</text>
<rect x="162" y="192" width="34" height="20" rx="3" fill="#f58231"/>
<text x="176.0" y="207.0" font-size="10" text-anchor="middle" fill="black" font-weight="bold">4</text>
<rect x="198" y="192" width="34" height="20" rx="3" fill="#911eb4"/>
<text x="212.0" y="207.0" font-size="10" text-anchor="middle" fill="black" font-weight="bold">5</text>
<rect x="234" y="192" width="34" height="20" rx="3" fill="#ffe119"/>
<text x="248.0" y="207.0" font-size="10" text-anchor="middle" fill="black" font-weight="bold">2</text>
<rect x="270" y="192" width="34" height="20" rx="3" fill="#4363d8"/>
<text x="284.0" y="207.0" font-size="10" text-anchor="middle" fill="black" font-weight="bold">3</text>
<rect x="306" y="192" width="34" height="20" rx="3" fill="#e6194b"/>
<text x="320.0" y="207.0" font-size="10" text-anchor="middle" fill="black" font-weight="bold">0</text>
<rect x="342" y="192" width="34" height="20" rx="3" fill="#3cb44b"/>
<text x="356.0" y="207.0" font-size="10" text-anchor="middle" fill="black" font-weight="bold">1</text>
<text x="45" y="229.0" fill="#666" font-size="9" text-anchor="end">r7</text>
<rect x="90" y="214" width="34" height="20" rx="3" fill="#f032e6"/>
<text x="104.0" y="229.0" font-size="10" text-anchor="middle" fill="black" font-weight="bold">7</text>
<rect x="126" y="214" width="34" height="20" rx="3" fill="#46f0f0"/>
<text x="140.0" y="229.0" font-size="10" text-anchor="middle" fill="black" font-weight="bold">6</text>
<rect x="162" y="214" width="34" height="20" rx="3" fill="#911eb4"/>
<text x="176.0" y="229.0" font-size="10" text-anchor="middle" fill="black" font-weight="bold">5</text>
<rect x="198" y="214" width="34" height="20" rx="3" fill="#f58231"/>
<text x="212.0" y="229.0" font-size="10" text-anchor="middle" fill="black" font-weight="bold">4</text>
<rect x="234" y="214" width="34" height="20" rx="3" fill="#4363d8"/>
<text x="248.0" y="229.0" font-size="10" text-anchor="middle" fill="black" font-weight="bold">3</text>
<rect x="270" y="214" width="34" height="20" rx="3" fill="#ffe119"/>
<text x="284.0" y="229.0" font-size="10" text-anchor="middle" fill="black" font-weight="bold">2</text>
<rect x="306" y="214" width="34" height="20" rx="3" fill="#3cb44b"/>
<text x="320.0" y="229.0" font-size="10" text-anchor="middle" fill="black" font-weight="bold">1</text>
<rect x="342" y="214" width="34" height="20" rx="3" fill="#e6194b"/>
<text x="356.0" y="229.0" font-size="10" text-anchor="middle" fill="black" font-weight="bold">0</text>
<text x="45" y="251.0" fill="#666" font-size="9" text-anchor="end">r8</text>
<rect x="90" y="236" width="34" height="20" rx="3" fill="#e6194b"/>
<text x="104.0" y="251.0" font-size="10" text-anchor="middle" fill="black" font-weight="bold">0</text>
<rect x="126" y="236" width="34" height="20" rx="3" fill="#3cb44b"/>
<text x="140.0" y="251.0" font-size="10" text-anchor="middle" fill="black" font-weight="bold">1</text>
<rect x="162" y="236" width="34" height="20" rx="3" fill="#ffe119"/>
<text x="176.0" y="251.0" font-size="10" text-anchor="middle" fill="black" font-weight="bold">2</text>
<rect x="198" y="236" width="34" height="20" rx="3" fill="#4363d8"/>
<text x="212.0" y="251.0" font-size="10" text-anchor="middle" fill="black" font-weight="bold">3</text>
<rect x="234" y="236" width="34" height="20" rx="3" fill="#f58231"/>
<text x="248.0" y="251.0" font-size="10" text-anchor="middle" fill="black" font-weight="bold">4</text>
<rect x="270" y="236" width="34" height="20" rx="3" fill="#911eb4"/>
<text x="284.0" y="251.0" font-size="10" text-anchor="middle" fill="black" font-weight="bold">5</text>
<rect x="306" y="236" width="34" height="20" rx="3" fill="#46f0f0"/>
<text x="320.0" y="251.0" font-size="10" text-anchor="middle" fill="black" font-weight="bold">6</text>
<rect x="342" y="236" width="34" height="20" rx="3" fill="#f032e6"/>
<text x="356.0" y="251.0" font-size="10" text-anchor="middle" fill="black" font-weight="bold">7</text>
<text x="45" y="273.0" fill="#666" font-size="9" text-anchor="end">r9</text>
<rect x="90" y="258" width="34" height="20" rx="3" fill="#3cb44b"/>
<text x="104.0" y="273.0" font-size="10" text-anchor="middle" fill="black" font-weight="bold">1</text>
<rect x="126" y="258" width="34" height="20" rx="3" fill="#e6194b"/>
<text x="140.0" y="273.0" font-size="10" text-anchor="middle" fill="black" font-weight="bold">0</text>
<rect x="162" y="258" width="34" height="20" rx="3" fill="#4363d8"/>
<text x="176.0" y="273.0" font-size="10" text-anchor="middle" fill="black" font-weight="bold">3</text>
<rect x="198" y="258" width="34" height="20" rx="3" fill="#ffe119"/>
<text x="212.0" y="273.0" font-size="10" text-anchor="middle" fill="black" font-weight="bold">2</text>
<rect x="234" y="258" width="34" height="20" rx="3" fill="#911eb4"/>
<text x="248.0" y="273.0" font-size="10" text-anchor="middle" fill="black" font-weight="bold">5</text>
<rect x="270" y="258" width="34" height="20" rx="3" fill="#f58231"/>
<text x="284.0" y="273.0" font-size="10" text-anchor="middle" fill="black" font-weight="bold">4</text>
<rect x="306" y="258" width="34" height="20" rx="3" fill="#f032e6"/>
<text x="320.0" y="273.0" font-size="10" text-anchor="middle" fill="black" font-weight="bold">7</text>
<rect x="342" y="258" width="34" height="20" rx="3" fill="#46f0f0"/>
<text x="356.0" y="273.0" font-size="10" text-anchor="middle" fill="black" font-weight="bold">6</text>
<text x="45" y="295.0" fill="#666" font-size="9" text-anchor="end">r10</text>
<rect x="90" y="280" width="34" height="20" rx="3" fill="#ffe119"/>
<text x="104.0" y="295.0" font-size="10" text-anchor="middle" fill="black" font-weight="bold">2</text>
<rect x="126" y="280" width="34" height="20" rx="3" fill="#4363d8"/>
<text x="140.0" y="295.0" font-size="10" text-anchor="middle" fill="black" font-weight="bold">3</text>
<rect x="162" y="280" width="34" height="20" rx="3" fill="#e6194b"/>
<text x="176.0" y="295.0" font-size="10" text-anchor="middle" fill="black" font-weight="bold">0</text>
<rect x="198" y="280" width="34" height="20" rx="3" fill="#3cb44b"/>
<text x="212.0" y="295.0" font-size="10" text-anchor="middle" fill="black" font-weight="bold">1</text>
<rect x="234" y="280" width="34" height="20" rx="3" fill="#46f0f0"/>
<text x="248.0" y="295.0" font-size="10" text-anchor="middle" fill="black" font-weight="bold">6</text>
<rect x="270" y="280" width="34" height="20" rx="3" fill="#f032e6"/>
<text x="284.0" y="295.0" font-size="10" text-anchor="middle" fill="black" font-weight="bold">7</text>
<rect x="306" y="280" width="34" height="20" rx="3" fill="#f58231"/>
<text x="320.0" y="295.0" font-size="10" text-anchor="middle" fill="black" font-weight="bold">4</text>
<rect x="342" y="280" width="34" height="20" rx="3" fill="#911eb4"/>
<text x="356.0" y="295.0" font-size="10" text-anchor="middle" fill="black" font-weight="bold">5</text>
<text x="45" y="317.0" fill="#666" font-size="9" text-anchor="end">r11</text>
<rect x="90" y="302" width="34" height="20" rx="3" fill="#4363d8"/>
<text x="104.0" y="317.0" font-size="10" text-anchor="middle" fill="black" font-weight="bold">3</text>
<rect x="126" y="302" width="34" height="20" rx="3" fill="#ffe119"/>
<text x="140.0" y="317.0" font-size="10" text-anchor="middle" fill="black" font-weight="bold">2</text>
<rect x="162" y="302" width="34" height="20" rx="3" fill="#3cb44b"/>
<text x="176.0" y="317.0" font-size="10" text-anchor="middle" fill="black" font-weight="bold">1</text>
<rect x="198" y="302" width="34" height="20" rx="3" fill="#e6194b"/>
<text x="212.0" y="317.0" font-size="10" text-anchor="middle" fill="black" font-weight="bold">0</text>
<rect x="234" y="302" width="34" height="20" rx="3" fill="#f032e6"/>
<text x="248.0" y="317.0" font-size="10" text-anchor="middle" fill="black" font-weight="bold">7</text>
<rect x="270" y="302" width="34" height="20" rx="3" fill="#46f0f0"/>
<text x="284.0" y="317.0" font-size="10" text-anchor="middle" fill="black" font-weight="bold">6</text>
<rect x="306" y="302" width="34" height="20" rx="3" fill="#911eb4"/>
<text x="320.0" y="317.0" font-size="10" text-anchor="middle" fill="black" font-weight="bold">5</text>
<rect x="342" y="302" width="34" height="20" rx="3" fill="#f58231"/>
<text x="356.0" y="317.0" font-size="10" text-anchor="middle" fill="black" font-weight="bold">4</text>
<text x="45" y="339.0" fill="#666" font-size="9" text-anchor="end">r12</text>
<rect x="90" y="324" width="34" height="20" rx="3" fill="#f58231"/>
<text x="104.0" y="339.0" font-size="10" text-anchor="middle" fill="black" font-weight="bold">4</text>
<rect x="126" y="324" width="34" height="20" rx="3" fill="#911eb4"/>
<text x="140.0" y="339.0" font-size="10" text-anchor="middle" fill="black" font-weight="bold">5</text>
<rect x="162" y="324" width="34" height="20" rx="3" fill="#46f0f0"/>
<text x="176.0" y="339.0" font-size="10" text-anchor="middle" fill="black" font-weight="bold">6</text>
<rect x="198" y="324" width="34" height="20" rx="3" fill="#f032e6"/>
<text x="212.0" y="339.0" font-size="10" text-anchor="middle" fill="black" font-weight="bold">7</text>
<rect x="234" y="324" width="34" height="20" rx="3" fill="#e6194b"/>
<text x="248.0" y="339.0" font-size="10" text-anchor="middle" fill="black" font-weight="bold">0</text>
<rect x="270" y="324" width="34" height="20" rx="3" fill="#3cb44b"/>
<text x="284.0" y="339.0" font-size="10" text-anchor="middle" fill="black" font-weight="bold">1</text>
<rect x="306" y="324" width="34" height="20" rx="3" fill="#ffe119"/>
<text x="320.0" y="339.0" font-size="10" text-anchor="middle" fill="black" font-weight="bold">2</text>
<rect x="342" y="324" width="34" height="20" rx="3" fill="#4363d8"/>
<text x="356.0" y="339.0" font-size="10" text-anchor="middle" fill="black" font-weight="bold">3</text>
<text x="45" y="361.0" fill="#666" font-size="9" text-anchor="end">r13</text>
<rect x="90" y="346" width="34" height="20" rx="3" fill="#911eb4"/>
<text x="104.0" y="361.0" font-size="10" text-anchor="middle" fill="black" font-weight="bold">5</text>
<rect x="126" y="346" width="34" height="20" rx="3" fill="#f58231"/>
<text x="140.0" y="361.0" font-size="10" text-anchor="middle" fill="black" font-weight="bold">4</text>
<rect x="162" y="346" width="34" height="20" rx="3" fill="#f032e6"/>
<text x="176.0" y="361.0" font-size="10" text-anchor="middle" fill="black" font-weight="bold">7</text>
<rect x="198" y="346" width="34" height="20" rx="3" fill="#46f0f0"/>
<text x="212.0" y="361.0" font-size="10" text-anchor="middle" fill="black" font-weight="bold">6</text>
<rect x="234" y="346" width="34" height="20" rx="3" fill="#3cb44b"/>
<text x="248.0" y="361.0" font-size="10" text-anchor="middle" fill="black" font-weight="bold">1</text>
<rect x="270" y="346" width="34" height="20" rx="3" fill="#e6194b"/>
<text x="284.0" y="361.0" font-size="10" text-anchor="middle" fill="black" font-weight="bold">0</text>
<rect x="306" y="346" width="34" height="20" rx="3" fill="#4363d8"/>
<text x="320.0" y="361.0" font-size="10" text-anchor="middle" fill="black" font-weight="bold">3</text>
<rect x="342" y="346" width="34" height="20" rx="3" fill="#ffe119"/>
<text x="356.0" y="361.0" font-size="10" text-anchor="middle" fill="black" font-weight="bold">2</text>
<text x="45" y="383.0" fill="#666" font-size="9" text-anchor="end">r14</text>
<rect x="90" y="368" width="34" height="20" rx="3" fill="#46f0f0"/>
<text x="104.0" y="383.0" font-size="10" text-anchor="middle" fill="black" font-weight="bold">6</text>
<rect x="126" y="368" width="34" height="20" rx="3" fill="#f032e6"/>
<text x="140.0" y="383.0" font-size="10" text-anchor="middle" fill="black" font-weight="bold">7</text>
<rect x="162" y="368" width="34" height="20" rx="3" fill="#f58231"/>
<text x="176.0" y="383.0" font-size="10" text-anchor="middle" fill="black" font-weight="bold">4</text>
<rect x="198" y="368" width="34" height="20" rx="3" fill="#911eb4"/>
<text x="212.0" y="383.0" font-size="10" text-anchor="middle" fill="black" font-weight="bold">5</text>
<rect x="234" y="368" width="34" height="20" rx="3" fill="#ffe119"/>
<text x="248.0" y="383.0" font-size="10" text-anchor="middle" fill="black" font-weight="bold">2</text>
<rect x="270" y="368" width="34" height="20" rx="3" fill="#4363d8"/>
<text x="284.0" y="383.0" font-size="10" text-anchor="middle" fill="black" font-weight="bold">3</text>
<rect x="306" y="368" width="34" height="20" rx="3" fill="#e6194b"/>
<text x="320.0" y="383.0" font-size="10" text-anchor="middle" fill="black" font-weight="bold">0</text>
<rect x="342" y="368" width="34" height="20" rx="3" fill="#3cb44b"/>
<text x="356.0" y="383.0" font-size="10" text-anchor="middle" fill="black" font-weight="bold">1</text>
<text x="45" y="405.0" fill="#666" font-size="9" text-anchor="end">r15</text>
<rect x="90" y="390" width="34" height="20" rx="3" fill="#f032e6"/>
<text x="104.0" y="405.0" font-size="10" text-anchor="middle" fill="black" font-weight="bold">7</text>
<rect x="126" y="390" width="34" height="20" rx="3" fill="#46f0f0"/>
<text x="140.0" y="405.0" font-size="10" text-anchor="middle" fill="black" font-weight="bold">6</text>
<rect x="162" y="390" width="34" height="20" rx="3" fill="#911eb4"/>
<text x="176.0" y="405.0" font-size="10" text-anchor="middle" fill="black" font-weight="bold">5</text>
<rect x="198" y="390" width="34" height="20" rx="3" fill="#f58231"/>
<text x="212.0" y="405.0" font-size="10" text-anchor="middle" fill="black" font-weight="bold">4</text>
<rect x="234" y="390" width="34" height="20" rx="3" fill="#4363d8"/>
<text x="248.0" y="405.0" font-size="10" text-anchor="middle" fill="black" font-weight="bold">3</text>
<rect x="270" y="390" width="34" height="20" rx="3" fill="#ffe119"/>
<text x="284.0" y="405.0" font-size="10" text-anchor="middle" fill="black" font-weight="bold">2</text>
<rect x="306" y="390" width="34" height="20" rx="3" fill="#3cb44b"/>
<text x="320.0" y="405.0" font-size="10" text-anchor="middle" fill="black" font-weight="bold">1</text>
<rect x="342" y="390" width="34" height="20" rx="3" fill="#e6194b"/>
<text x="356.0" y="405.0" font-size="10" text-anchor="middle" fill="black" font-weight="bold">0</text>
<text x="45" y="427.0" fill="#666" font-size="9" text-anchor="end">r16</text>
<rect x="90" y="412" width="34" height="20" rx="3" fill="#e6194b"/>
<text x="104.0" y="427.0" font-size="10" text-anchor="middle" fill="black" font-weight="bold">0</text>
<rect x="126" y="412" width="34" height="20" rx="3" fill="#3cb44b"/>
<text x="140.0" y="427.0" font-size="10" text-anchor="middle" fill="black" font-weight="bold">1</text>
<rect x="162" y="412" width="34" height="20" rx="3" fill="#ffe119"/>
<text x="176.0" y="427.0" font-size="10" text-anchor="middle" fill="black" font-weight="bold">2</text>
<rect x="198" y="412" width="34" height="20" rx="3" fill="#4363d8"/>
<text x="212.0" y="427.0" font-size="10" text-anchor="middle" fill="black" font-weight="bold">3</text>
<rect x="234" y="412" width="34" height="20" rx="3" fill="#f58231"/>
<text x="248.0" y="427.0" font-size="10" text-anchor="middle" fill="black" font-weight="bold">4</text>
<rect x="270" y="412" width="34" height="20" rx="3" fill="#911eb4"/>
<text x="284.0" y="427.0" font-size="10" text-anchor="middle" fill="black" font-weight="bold">5</text>
<rect x="306" y="412" width="34" height="20" rx="3" fill="#46f0f0"/>
<text x="320.0" y="427.0" font-size="10" text-anchor="middle" fill="black" font-weight="bold">6</text>
<rect x="342" y="412" width="34" height="20" rx="3" fill="#f032e6"/>
<text x="356.0" y="427.0" font-size="10" text-anchor="middle" fill="black" font-weight="bold">7</text>
<text x="45" y="449.0" fill="#666" font-size="9" text-anchor="end">r17</text>
<rect x="90" y="434" width="34" height="20" rx="3" fill="#3cb44b"/>
<text x="104.0" y="449.0" font-size="10" text-anchor="middle" fill="black" font-weight="bold">1</text>
<rect x="126" y="434" width="34" height="20" rx="3" fill="#e6194b"/>
<text x="140.0" y="449.0" font-size="10" text-anchor="middle" fill="black" font-weight="bold">0</text>
<rect x="162" y="434" width="34" height="20" rx="3" fill="#4363d8"/>
<text x="176.0" y="449.0" font-size="10" text-anchor="middle" fill="black" font-weight="bold">3</text>
<rect x="198" y="434" width="34" height="20" rx="3" fill="#ffe119"/>
<text x="212.0" y="449.0" font-size="10" text-anchor="middle" fill="black" font-weight="bold">2</text>
<rect x="234" y="434" width="34" height="20" rx="3" fill="#911eb4"/>
<text x="248.0" y="449.0" font-size="10" text-anchor="middle" fill="black" font-weight="bold">5</text>
<rect x="270" y="434" width="34" height="20" rx="3" fill="#f58231"/>
<text x="284.0" y="449.0" font-size="10" text-anchor="middle" fill="black" font-weight="bold">4</text>
<rect x="306" y="434" width="34" height="20" rx="3" fill="#f032e6"/>
<text x="320.0" y="449.0" font-size="10" text-anchor="middle" fill="black" font-weight="bold">7</text>
<rect x="342" y="434" width="34" height="20" rx="3" fill="#46f0f0"/>
<text x="356.0" y="449.0" font-size="10" text-anchor="middle" fill="black" font-weight="bold">6</text>
<text x="45" y="471.0" fill="#666" font-size="9" text-anchor="end">r18</text>
<rect x="90" y="456" width="34" height="20" rx="3" fill="#ffe119"/>
<text x="104.0" y="471.0" font-size="10" text-anchor="middle" fill="black" font-weight="bold">2</text>
<rect x="126" y="456" width="34" height="20" rx="3" fill="#4363d8"/>
<text x="140.0" y="471.0" font-size="10" text-anchor="middle" fill="black" font-weight="bold">3</text>
<rect x="162" y="456" width="34" height="20" rx="3" fill="#e6194b"/>
<text x="176.0" y="471.0" font-size="10" text-anchor="middle" fill="black" font-weight="bold">0</text>
<rect x="198" y="456" width="34" height="20" rx="3" fill="#3cb44b"/>
<text x="212.0" y="471.0" font-size="10" text-anchor="middle" fill="black" font-weight="bold">1</text>
<rect x="234" y="456" width="34" height="20" rx="3" fill="#46f0f0"/>
<text x="248.0" y="471.0" font-size="10" text-anchor="middle" fill="black" font-weight="bold">6</text>
<rect x="270" y="456" width="34" height="20" rx="3" fill="#f032e6"/>
<text x="284.0" y="471.0" font-size="10" text-anchor="middle" fill="black" font-weight="bold">7</text>
<rect x="306" y="456" width="34" height="20" rx="3" fill="#f58231"/>
<text x="320.0" y="471.0" font-size="10" text-anchor="middle" fill="black" font-weight="bold">4</text>
<rect x="342" y="456" width="34" height="20" rx="3" fill="#911eb4"/>
<text x="356.0" y="471.0" font-size="10" text-anchor="middle" fill="black" font-weight="bold">5</text>
<text x="45" y="493.0" fill="#666" font-size="9" text-anchor="end">r19</text>
<rect x="90" y="478" width="34" height="20" rx="3" fill="#4363d8"/>
<text x="104.0" y="493.0" font-size="10" text-anchor="middle" fill="black" font-weight="bold">3</text>
<rect x="126" y="478" width="34" height="20" rx="3" fill="#ffe119"/>
<text x="140.0" y="493.0" font-size="10" text-anchor="middle" fill="black" font-weight="bold">2</text>
<rect x="162" y="478" width="34" height="20" rx="3" fill="#3cb44b"/>
<text x="176.0" y="493.0" font-size="10" text-anchor="middle" fill="black" font-weight="bold">1</text>
<rect x="198" y="478" width="34" height="20" rx="3" fill="#e6194b"/>
<text x="212.0" y="493.0" font-size="10" text-anchor="middle" fill="black" font-weight="bold">0</text>
<rect x="234" y="478" width="34" height="20" rx="3" fill="#f032e6"/>
<text x="248.0" y="493.0" font-size="10" text-anchor="middle" fill="black" font-weight="bold">7</text>
<rect x="270" y="478" width="34" height="20" rx="3" fill="#46f0f0"/>
<text x="284.0" y="493.0" font-size="10" text-anchor="middle" fill="black" font-weight="bold">6</text>
<rect x="306" y="478" width="34" height="20" rx="3" fill="#911eb4"/>
<text x="320.0" y="493.0" font-size="10" text-anchor="middle" fill="black" font-weight="bold">5</text>
<rect x="342" y="478" width="34" height="20" rx="3" fill="#f58231"/>
<text x="356.0" y="493.0" font-size="10" text-anchor="middle" fill="black" font-weight="bold">4</text>
<text x="45" y="515.0" fill="#666" font-size="9" text-anchor="end">r20</text>
<rect x="90" y="500" width="34" height="20" rx="3" fill="#f58231"/>
<text x="104.0" y="515.0" font-size="10" text-anchor="middle" fill="black" font-weight="bold">4</text>
<rect x="126" y="500" width="34" height="20" rx="3" fill="#911eb4"/>
<text x="140.0" y="515.0" font-size="10" text-anchor="middle" fill="black" font-weight="bold">5</text>
<rect x="162" y="500" width="34" height="20" rx="3" fill="#46f0f0"/>
<text x="176.0" y="515.0" font-size="10" text-anchor="middle" fill="black" font-weight="bold">6</text>
<rect x="198" y="500" width="34" height="20" rx="3" fill="#f032e6"/>
<text x="212.0" y="515.0" font-size="10" text-anchor="middle" fill="black" font-weight="bold">7</text>
<rect x="234" y="500" width="34" height="20" rx="3" fill="#e6194b"/>
<text x="248.0" y="515.0" font-size="10" text-anchor="middle" fill="black" font-weight="bold">0</text>
<rect x="270" y="500" width="34" height="20" rx="3" fill="#3cb44b"/>
<text x="284.0" y="515.0" font-size="10" text-anchor="middle" fill="black" font-weight="bold">1</text>
<rect x="306" y="500" width="34" height="20" rx="3" fill="#ffe119"/>
<text x="320.0" y="515.0" font-size="10" text-anchor="middle" fill="black" font-weight="bold">2</text>
<rect x="342" y="500" width="34" height="20" rx="3" fill="#4363d8"/>
<text x="356.0" y="515.0" font-size="10" text-anchor="middle" fill="black" font-weight="bold">3</text>
<text x="45" y="537.0" fill="#666" font-size="9" text-anchor="end">r21</text>
<rect x="90" y="522" width="34" height="20" rx="3" fill="#911eb4"/>
<text x="104.0" y="537.0" font-size="10" text-anchor="middle" fill="black" font-weight="bold">5</text>
<rect x="126" y="522" width="34" height="20" rx="3" fill="#f58231"/>
<text x="140.0" y="537.0" font-size="10" text-anchor="middle" fill="black" font-weight="bold">4</text>
<rect x="162" y="522" width="34" height="20" rx="3" fill="#f032e6"/>
<text x="176.0" y="537.0" font-size="10" text-anchor="middle" fill="black" font-weight="bold">7</text>
<rect x="198" y="522" width="34" height="20" rx="3" fill="#46f0f0"/>
<text x="212.0" y="537.0" font-size="10" text-anchor="middle" fill="black" font-weight="bold">6</text>
<rect x="234" y="522" width="34" height="20" rx="3" fill="#3cb44b"/>
<text x="248.0" y="537.0" font-size="10" text-anchor="middle" fill="black" font-weight="bold">1</text>
<rect x="270" y="522" width="34" height="20" rx="3" fill="#e6194b"/>
<text x="284.0" y="537.0" font-size="10" text-anchor="middle" fill="black" font-weight="bold">0</text>
<rect x="306" y="522" width="34" height="20" rx="3" fill="#4363d8"/>
<text x="320.0" y="537.0" font-size="10" text-anchor="middle" fill="black" font-weight="bold">3</text>
<rect x="342" y="522" width="34" height="20" rx="3" fill="#ffe119"/>
<text x="356.0" y="537.0" font-size="10" text-anchor="middle" fill="black" font-weight="bold">2</text>
<text x="45" y="559.0" fill="#666" font-size="9" text-anchor="end">r22</text>
<rect x="90" y="544" width="34" height="20" rx="3" fill="#46f0f0"/>
<text x="104.0" y="559.0" font-size="10" text-anchor="middle" fill="black" font-weight="bold">6</text>
<rect x="126" y="544" width="34" height="20" rx="3" fill="#f032e6"/>
<text x="140.0" y="559.0" font-size="10" text-anchor="middle" fill="black" font-weight="bold">7</text>
<rect x="162" y="544" width="34" height="20" rx="3" fill="#f58231"/>
<text x="176.0" y="559.0" font-size="10" text-anchor="middle" fill="black" font-weight="bold">4</text>
<rect x="198" y="544" width="34" height="20" rx="3" fill="#911eb4"/>
<text x="212.0" y="559.0" font-size="10" text-anchor="middle" fill="black" font-weight="bold">5</text>
<rect x="234" y="544" width="34" height="20" rx="3" fill="#ffe119"/>
<text x="248.0" y="559.0" font-size="10" text-anchor="middle" fill="black" font-weight="bold">2</text>
<rect x="270" y="544" width="34" height="20" rx="3" fill="#4363d8"/>
<text x="284.0" y="559.0" font-size="10" text-anchor="middle" fill="black" font-weight="bold">3</text>
<rect x="306" y="544" width="34" height="20" rx="3" fill="#e6194b"/>
<text x="320.0" y="559.0" font-size="10" text-anchor="middle" fill="black" font-weight="bold">0</text>
<rect x="342" y="544" width="34" height="20" rx="3" fill="#3cb44b"/>
<text x="356.0" y="559.0" font-size="10" text-anchor="middle" fill="black" font-weight="bold">1</text>
<text x="45" y="581.0" fill="#666" font-size="9" text-anchor="end">r23</text>
<rect x="90" y="566" width="34" height="20" rx="3" fill="#f032e6"/>
<text x="104.0" y="581.0" font-size="10" text-anchor="middle" fill="black" font-weight="bold">7</text>
<rect x="126" y="566" width="34" height="20" rx="3" fill="#46f0f0"/>
<text x="140.0" y="581.0" font-size="10" text-anchor="middle" fill="black" font-weight="bold">6</text>
<rect x="162" y="566" width="34" height="20" rx="3" fill="#911eb4"/>
<text x="176.0" y="581.0" font-size="10" text-anchor="middle" fill="black" font-weight="bold">5</text>
<rect x="198" y="566" width="34" height="20" rx="3" fill="#f58231"/>
<text x="212.0" y="581.0" font-size="10" text-anchor="middle" fill="black" font-weight="bold">4</text>
<rect x="234" y="566" width="34" height="20" rx="3" fill="#4363d8"/>
<text x="248.0" y="581.0" font-size="10" text-anchor="middle" fill="black" font-weight="bold">3</text>
<rect x="270" y="566" width="34" height="20" rx="3" fill="#ffe119"/>
<text x="284.0" y="581.0" font-size="10" text-anchor="middle" fill="black" font-weight="bold">2</text>
<rect x="306" y="566" width="34" height="20" rx="3" fill="#3cb44b"/>
<text x="320.0" y="581.0" font-size="10" text-anchor="middle" fill="black" font-weight="bold">1</text>
<rect x="342" y="566" width="34" height="20" rx="3" fill="#e6194b"/>
<text x="356.0" y="581.0" font-size="10" text-anchor="middle" fill="black" font-weight="bold">0</text>
<text x="45" y="603.0" fill="#666" font-size="9" text-anchor="end">r24</text>
<rect x="90" y="588" width="34" height="20" rx="3" fill="#e6194b"/>
<text x="104.0" y="603.0" font-size="10" text-anchor="middle" fill="black" font-weight="bold">0</text>
<rect x="126" y="588" width="34" height="20" rx="3" fill="#3cb44b"/>
<text x="140.0" y="603.0" font-size="10" text-anchor="middle" fill="black" font-weight="bold">1</text>
<rect x="162" y="588" width="34" height="20" rx="3" fill="#ffe119"/>
<text x="176.0" y="603.0" font-size="10" text-anchor="middle" fill="black" font-weight="bold">2</text>
<rect x="198" y="588" width="34" height="20" rx="3" fill="#4363d8"/>
<text x="212.0" y="603.0" font-size="10" text-anchor="middle" fill="black" font-weight="bold">3</text>
<rect x="234" y="588" width="34" height="20" rx="3" fill="#f58231"/>
<text x="248.0" y="603.0" font-size="10" text-anchor="middle" fill="black" font-weight="bold">4</text>
<rect x="270" y="588" width="34" height="20" rx="3" fill="#911eb4"/>
<text x="284.0" y="603.0" font-size="10" text-anchor="middle" fill="black" font-weight="bold">5</text>
<rect x="306" y="588" width="34" height="20" rx="3" fill="#46f0f0"/>
<text x="320.0" y="603.0" font-size="10" text-anchor="middle" fill="black" font-weight="bold">6</text>
<rect x="342" y="588" width="34" height="20" rx="3" fill="#f032e6"/>
<text x="356.0" y="603.0" font-size="10" text-anchor="middle" fill="black" font-weight="bold">7</text>
<text x="45" y="625.0" fill="#666" font-size="9" text-anchor="end">r25</text>
<rect x="90" y="610" width="34" height="20" rx="3" fill="#3cb44b"/>
<text x="104.0" y="625.0" font-size="10" text-anchor="middle" fill="black" font-weight="bold">1</text>
<rect x="126" y="610" width="34" height="20" rx="3" fill="#e6194b"/>
<text x="140.0" y="625.0" font-size="10" text-anchor="middle" fill="black" font-weight="bold">0</text>
<rect x="162" y="610" width="34" height="20" rx="3" fill="#4363d8"/>
<text x="176.0" y="625.0" font-size="10" text-anchor="middle" fill="black" font-weight="bold">3</text>
<rect x="198" y="610" width="34" height="20" rx="3" fill="#ffe119"/>
<text x="212.0" y="625.0" font-size="10" text-anchor="middle" fill="black" font-weight="bold">2</text>
<rect x="234" y="610" width="34" height="20" rx="3" fill="#911eb4"/>
<text x="248.0" y="625.0" font-size="10" text-anchor="middle" fill="black" font-weight="bold">5</text>
<rect x="270" y="610" width="34" height="20" rx="3" fill="#f58231"/>
<text x="284.0" y="625.0" font-size="10" text-anchor="middle" fill="black" font-weight="bold">4</text>
<rect x="306" y="610" width="34" height="20" rx="3" fill="#f032e6"/>
<text x="320.0" y="625.0" font-size="10" text-anchor="middle" fill="black" font-weight="bold">7</text>
<rect x="342" y="610" width="34" height="20" rx="3" fill="#46f0f0"/>
<text x="356.0" y="625.0" font-size="10" text-anchor="middle" fill="black" font-weight="bold">6</text>
<text x="45" y="647.0" fill="#666" font-size="9" text-anchor="end">r26</text>
<rect x="90" y="632" width="34" height="20" rx="3" fill="#ffe119"/>
<text x="104.0" y="647.0" font-size="10" text-anchor="middle" fill="black" font-weight="bold">2</text>
<rect x="126" y="632" width="34" height="20" rx="3" fill="#4363d8"/>
<text x="140.0" y="647.0" font-size="10" text-anchor="middle" fill="black" font-weight="bold">3</text>
<rect x="162" y="632" width="34" height="20" rx="3" fill="#e6194b"/>
<text x="176.0" y="647.0" font-size="10" text-anchor="middle" fill="black" font-weight="bold">0</text>
<rect x="198" y="632" width="34" height="20" rx="3" fill="#3cb44b"/>
<text x="212.0" y="647.0" font-size="10" text-anchor="middle" fill="black" font-weight="bold">1</text>
<rect x="234" y="632" width="34" height="20" rx="3" fill="#46f0f0"/>
<text x="248.0" y="647.0" font-size="10" text-anchor="middle" fill="black" font-weight="bold">6</text>
<rect x="270" y="632" width="34" height="20" rx="3" fill="#f032e6"/>
<text x="284.0" y="647.0" font-size="10" text-anchor="middle" fill="black" font-weight="bold">7</text>
<rect x="306" y="632" width="34" height="20" rx="3" fill="#f58231"/>
<text x="320.0" y="647.0" font-size="10" text-anchor="middle" fill="black" font-weight="bold">4</text>
<rect x="342" y="632" width="34" height="20" rx="3" fill="#911eb4"/>
<text x="356.0" y="647.0" font-size="10" text-anchor="middle" fill="black" font-weight="bold">5</text>
<text x="45" y="669.0" fill="#666" font-size="9" text-anchor="end">r27</text>
<rect x="90" y="654" width="34" height="20" rx="3" fill="#4363d8"/>
<text x="104.0" y="669.0" font-size="10" text-anchor="middle" fill="black" font-weight="bold">3</text>
<rect x="126" y="654" width="34" height="20" rx="3" fill="#ffe119"/>
<text x="140.0" y="669.0" font-size="10" text-anchor="middle" fill="black" font-weight="bold">2</text>
<rect x="162" y="654" width="34" height="20" rx="3" fill="#3cb44b"/>
<text x="176.0" y="669.0" font-size="10" text-anchor="middle" fill="black" font-weight="bold">1</text>
<rect x="198" y="654" width="34" height="20" rx="3" fill="#e6194b"/>
<text x="212.0" y="669.0" font-size="10" text-anchor="middle" fill="black" font-weight="bold">0</text>
<rect x="234" y="654" width="34" height="20" rx="3" fill="#f032e6"/>
<text x="248.0" y="669.0" font-size="10" text-anchor="middle" fill="black" font-weight="bold">7</text>
<rect x="270" y="654" width="34" height="20" rx="3" fill="#46f0f0"/>
<text x="284.0" y="669.0" font-size="10" text-anchor="middle" fill="black" font-weight="bold">6</text>
<rect x="306" y="654" width="34" height="20" rx="3" fill="#911eb4"/>
<text x="320.0" y="669.0" font-size="10" text-anchor="middle" fill="black" font-weight="bold">5</text>
<rect x="342" y="654" width="34" height="20" rx="3" fill="#f58231"/>
<text x="356.0" y="669.0" font-size="10" text-anchor="middle" fill="black" font-weight="bold">4</text>
<text x="45" y="691.0" fill="#666" font-size="9" text-anchor="end">r28</text>
<rect x="90" y="676" width="34" height="20" rx="3" fill="#f58231"/>
<text x="104.0" y="691.0" font-size="10" text-anchor="middle" fill="black" font-weight="bold">4</text>
<rect x="126" y="676" width="34" height="20" rx="3" fill="#911eb4"/>
<text x="140.0" y="691.0" font-size="10" text-anchor="middle" fill="black" font-weight="bold">5</text>
<rect x="162" y="676" width="34" height="20" rx="3" fill="#46f0f0"/>
<text x="176.0" y="691.0" font-size="10" text-anchor="middle" fill="black" font-weight="bold">6</text>
<rect x="198" y="676" width="34" height="20" rx="3" fill="#f032e6"/>
<text x="212.0" y="691.0" font-size="10" text-anchor="middle" fill="black" font-weight="bold">7</text>
<rect x="234" y="676" width="34" height="20" rx="3" fill="#e6194b"/>
<text x="248.0" y="691.0" font-size="10" text-anchor="middle" fill="black" font-weight="bold">0</text>
<rect x="270" y="676" width="34" height="20" rx="3" fill="#3cb44b"/>
<text x="284.0" y="691.0" font-size="10" text-anchor="middle" fill="black" font-weight="bold">1</text>
<rect x="306" y="676" width="34" height="20" rx="3" fill="#ffe119"/>
<text x="320.0" y="691.0" font-size="10" text-anchor="middle" fill="black" font-weight="bold">2</text>
<rect x="342" y="676" width="34" height="20" rx="3" fill="#4363d8"/>
<text x="356.0" y="691.0" font-size="10" text-anchor="middle" fill="black" font-weight="bold">3</text>
<text x="45" y="713.0" fill="#666" font-size="9" text-anchor="end">r29</text>
<rect x="90" y="698" width="34" height="20" rx="3" fill="#911eb4"/>
<text x="104.0" y="713.0" font-size="10" text-anchor="middle" fill="black" font-weight="bold">5</text>
<rect x="126" y="698" width="34" height="20" rx="3" fill="#f58231"/>
<text x="140.0" y="713.0" font-size="10" text-anchor="middle" fill="black" font-weight="bold">4</text>
<rect x="162" y="698" width="34" height="20" rx="3" fill="#f032e6"/>
<text x="176.0" y="713.0" font-size="10" text-anchor="middle" fill="black" font-weight="bold">7</text>
<rect x="198" y="698" width="34" height="20" rx="3" fill="#46f0f0"/>
<text x="212.0" y="713.0" font-size="10" text-anchor="middle" fill="black" font-weight="bold">6</text>
<rect x="234" y="698" width="34" height="20" rx="3" fill="#3cb44b"/>
<text x="248.0" y="713.0" font-size="10" text-anchor="middle" fill="black" font-weight="bold">1</text>
<rect x="270" y="698" width="34" height="20" rx="3" fill="#e6194b"/>
<text x="284.0" y="713.0" font-size="10" text-anchor="middle" fill="black" font-weight="bold">0</text>
<rect x="306" y="698" width="34" height="20" rx="3" fill="#4363d8"/>
<text x="320.0" y="713.0" font-size="10" text-anchor="middle" fill="black" font-weight="bold">3</text>
<rect x="342" y="698" width="34" height="20" rx="3" fill="#ffe119"/>
<text x="356.0" y="713.0" font-size="10" text-anchor="middle" fill="black" font-weight="bold">2</text>
<text x="45" y="735.0" fill="#666" font-size="9" text-anchor="end">r30</text>
<rect x="90" y="720" width="34" height="20" rx="3" fill="#46f0f0"/>
<text x="104.0" y="735.0" font-size="10" text-anchor="middle" fill="black" font-weight="bold">6</text>
<rect x="126" y="720" width="34" height="20" rx="3" fill="#f032e6"/>
<text x="140.0" y="735.0" font-size="10" text-anchor="middle" fill="black" font-weight="bold">7</text>
<rect x="162" y="720" width="34" height="20" rx="3" fill="#f58231"/>
<text x="176.0" y="735.0" font-size="10" text-anchor="middle" fill="black" font-weight="bold">4</text>
<rect x="198" y="720" width="34" height="20" rx="3" fill="#911eb4"/>
<text x="212.0" y="735.0" font-size="10" text-anchor="middle" fill="black" font-weight="bold">5</text>
<rect x="234" y="720" width="34" height="20" rx="3" fill="#ffe119"/>
<text x="248.0" y="735.0" font-size="10" text-anchor="middle" fill="black" font-weight="bold">2</text>
<rect x="270" y="720" width="34" height="20" rx="3" fill="#4363d8"/>
<text x="284.0" y="735.0" font-size="10" text-anchor="middle" fill="black" font-weight="bold">3</text>
<rect x="306" y="720" width="34" height="20" rx="3" fill="#e6194b"/>
<text x="320.0" y="735.0" font-size="10" text-anchor="middle" fill="black" font-weight="bold">0</text>
<rect x="342" y="720" width="34" height="20" rx="3" fill="#3cb44b"/>
<text x="356.0" y="735.0" font-size="10" text-anchor="middle" fill="black" font-weight="bold">1</text>
<text x="45" y="757.0" fill="#666" font-size="9" text-anchor="end">r31</text>
<rect x="90" y="742" width="34" height="20" rx="3" fill="#f032e6"/>
<text x="104.0" y="757.0" font-size="10" text-anchor="middle" fill="black" font-weight="bold">7</text>
<rect x="126" y="742" width="34" height="20" rx="3" fill="#46f0f0"/>
<text x="140.0" y="757.0" font-size="10" text-anchor="middle" fill="black" font-weight="bold">6</text>
<rect x="162" y="742" width="34" height="20" rx="3" fill="#911eb4"/>
<text x="176.0" y="757.0" font-size="10" text-anchor="middle" fill="black" font-weight="bold">5</text>
<rect x="198" y="742" width="34" height="20" rx="3" fill="#f58231"/>
<text x="212.0" y="757.0" font-size="10" text-anchor="middle" fill="black" font-weight="bold">4</text>
<rect x="234" y="742" width="34" height="20" rx="3" fill="#4363d8"/>
<text x="248.0" y="757.0" font-size="10" text-anchor="middle" fill="black" font-weight="bold">3</text>
<rect x="270" y="742" width="34" height="20" rx="3" fill="#ffe119"/>
<text x="284.0" y="757.0" font-size="10" text-anchor="middle" fill="black" font-weight="bold">2</text>
<rect x="306" y="742" width="34" height="20" rx="3" fill="#3cb44b"/>
<text x="320.0" y="757.0" font-size="10" text-anchor="middle" fill="black" font-weight="bold">1</text>
<rect x="342" y="742" width="34" height="20" rx="3" fill="#e6194b"/>
<text x="356.0" y="757.0" font-size="10" text-anchor="middle" fill="black" font-weight="bold">0</text>
<text x="50" y="789" fill="#7fdbff" font-size="12">Physical column:</text>
<rect x="150" y="777" width="14" height="14" rx="2" fill="#e6194b"/>
<text x="168" y="788" fill="#eee" font-size="11">=0</text>
<rect x="195" y="777" width="14" height="14" rx="2" fill="#3cb44b"/>
<text x="213" y="788" fill="#eee" font-size="11">=1</text>
<rect x="240" y="777" width="14" height="14" rx="2" fill="#ffe119"/>
<text x="258" y="788" fill="#eee" font-size="11">=2</text>
<rect x="285" y="777" width="14" height="14" rx="2" fill="#4363d8"/>
<text x="303" y="788" fill="#eee" font-size="11">=3</text>
<rect x="330" y="777" width="14" height="14" rx="2" fill="#f58231"/>
<text x="348" y="788" fill="#eee" font-size="11">=4</text>
<rect x="375" y="777" width="14" height="14" rx="2" fill="#911eb4"/>
<text x="393" y="788" fill="#eee" font-size="11">=5</text>
<rect x="420" y="777" width="14" height="14" rx="2" fill="#46f0f0"/>
<text x="438" y="788" fill="#eee" font-size="11">=6</text>
<rect x="465" y="777" width="14" height="14" rx="2" fill="#f032e6"/>
<text x="483" y="788" fill="#eee" font-size="11">=7</text>
</svg>